<?xml version="1.0" ?><svg id="svg874" style="enable-background:new 0 0 32 32;" version="1.1" viewBox="0 0 32 32" xml:space="preserve" xmlns="http://www.w3.org/2000/svg" xmlns:cc="http://creativecommons.org/ns#" xmlns:dc="http://purl.org/dc/elements/1.1/" xmlns:inkscape="http://www.inkscape.org/namespaces/inkscape" xmlns:rdf="http://www.w3.org/1999/02/22-rdf-syntax-ns#" xmlns:sodipodi="http://sodipodi.sourceforge.net/DTD/sodipodi-0.dtd" xmlns:svg="http://www.w3.org/2000/svg" xmlns:xlink="http://www.w3.org/1999/xlink"><defs/><path d="M14.8,4.1c0.4,0,0.6,0.1,0.7,0.2v20.5c-0.2,0.2-0.3,0.4-0.6,0.6  c-0.4,0.3-0.8,0.7-1.5,1.1c-1.2,0.6-2.7,1-4.9,0.2v-8.3c1-0.4,1.7-1.1,2.2-2.1c0.6-1.1,1-2.4,1.3-3.7c0.6-2.7,0.9-5.7,1.3-7  c0.2-0.6,0.5-1,0.7-1.2S14.6,4.1,14.8,4.1z" id="path2893"/><path d="M17.2,4.1c0.2,0,0.5,0,0.7,0.2c0.2,0.2,0.5,0.5,0.7,1.2  c0.5,1.4,0.7,4.3,1.3,7c0.3,1.4,0.7,2.7,1.3,3.7c0.5,0.9,1.3,1.7,2.2,2.1v8.3c-2.2,0.8-3.8,0.5-4.9-0.2c-0.6-0.3-1.1-0.7-1.5-1.1  c-0.3-0.3-0.4-0.5-0.6-0.6V4.3C16.6,4.3,16.8,4.1,17.2,4.1z" id="path2891"/><path d="M3.5,16.5h4v1.3c0,0.1,0,0.2,0,0.3V27c0,0,0,0,0,0v1.5h-4V16.5z" id="path2889"/><path d="M24.5,16.5h4v12h-4V18.2c0-0.1,0-0.2,0-0.3V16.5z" id="rect1644"/></svg>