<?xml version="1.0" ?><svg viewBox="0 0 64 64" xmlns="http://www.w3.org/2000/svg"><title/><g data-name="Musical Note" id="Musical_Note"><path d="M21.25,27.4531V10.3418c1.1875,1.5117,1.8335,4.1406,1.8335,7.5278a3.3958,3.3958,0,1,0,6.7915,0c0-5.9834-1.5542-10.4087-4.62-13.1518A10.5107,10.5107,0,0,0,17.48,2.0366a3.3918,3.3918,0,0,0-3.021,3.3745v13.876a10.6194,10.6194,0,0,0-2.8335-.3808C6.3179,18.9063,2,22.74,2,27.4531S6.3179,36,11.625,36,21.25,32.166,21.25,27.4531ZM11.625,34C7.42,34,4,31.063,4,27.4531s3.42-6.5468,7.625-6.5468a8.5433,8.5433,0,0,1,3.4341.71,1,1,0,0,0,1.3994-.917V5.4111A1.3939,1.3939,0,0,1,17.7,4.0244,8.4078,8.4078,0,0,1,23.9214,6.208C26.5449,8.5557,27.875,12.48,27.875,17.87a1.3958,1.3958,0,1,1-2.7915,0c0-4.4975-1.0459-7.811-3.0239-9.581a5.888,5.888,0,0,0-1.3755-.9219,1,1,0,0,0-1.4341.9009V27.4531C19.25,31.063,15.83,34,11.625,34Z"/><path d="M60.627,15.8047h-.0005a3.4313,3.4313,0,0,0-3.0171-.5386l-26.126,7.7412a3.4387,3.4387,0,0,0-2.4478,3.2783V45.1475A10.69,10.69,0,0,0,26.165,44.76c-5.3535,0-9.7089,3.8672-9.7089,8.62S20.8115,62,26.165,62s9.7085-3.8672,9.7085-8.62V28.8389L55.1616,23.124V37.4063a10.6876,10.6876,0,0,0-2.8706-.3877c-5.3535,0-9.7085,3.8671-9.7085,8.62s4.355,8.62,9.7085,8.62S62,50.3916,62,45.6387V18.5444A3.4357,3.4357,0,0,0,60.627,15.8047ZM60,45.6387c0,3.65-3.458,6.62-7.709,6.62s-7.7085-2.97-7.7085-6.62,3.458-6.62,7.7085-6.62a8.638,8.638,0,0,1,3.4712.7182,1,1,0,0,0,1.3994-.917V21.7847a1,1,0,0,0-1.2842-.959l-21.288,6.3076a1.0006,1.0006,0,0,0-.7159.959V53.38c0,3.65-3.458,6.62-7.7085,6.62s-7.7089-2.97-7.7089-6.62,3.458-6.62,7.7089-6.62a8.6416,8.6416,0,0,1,3.4712.7182,1,1,0,0,0,1.3994-.917V26.2856a1.4263,1.4263,0,0,1,1.0157-1.36l26.1279-7.7417A1.4189,1.4189,0,0,1,60,18.5444Z"/></g></svg>